<?xml version="1.0" encoding="UTF-8"?>
<svg version="1.1" xmlns="http://www.w3.org/2000/svg" width="960" height="960">
<path d="M0 0 C29.7 0 59.4 0 90 0 C90 9.9 90 19.8 90 30 C139.5 30 189 30 240 30 C240 20.1 240 10.2 240 0 C269.7 0 299.4 0 330 0 C330 148.5 330 297 330 450 C320.1 450 310.2 450 300 450 C300 440.1 300 430.2 300 420 C290.1 420 280.2 420 270 420 C270 429.9 270 439.8 270 450 C260.1 450 250.2 450 240 450 C240 469.8 240 489.6 240 510 C230.1 510 220.2 510 210 510 C210 519.9 210 529.8 210 540 C190.2 540 170.4 540 150 540 C150 530.1 150 520.2 150 510 C140.1 510 130.2 510 120 510 C120 549.6 120 589.2 120 630 C40.8 630 -38.4 630 -120 630 C-120 550.8 -120 471.6 -120 390 C-139.8 390 -159.6 390 -180 390 C-180 350.4 -180 310.8 -180 270 C-130.5 270 -81 270 -30 270 C-30 190.8 -30 111.6 -30 30 C-20.1 30 -10.2 30 0 30 C0 20.1 0 10.2 0 0 Z " fill="#968B6C" transform="translate(360,210)"/>
<path d="M0 0 C29.7 0 59.4 0 90 0 C90 9.9 90 19.8 90 30 C139.5 30 189 30 240 30 C240 20.1 240 10.2 240 0 C269.7 0 299.4 0 330 0 C330 148.5 330 297 330 450 C320.1 450 310.2 450 300 450 C300 440.1 300 430.2 300 420 C290.1 420 280.2 420 270 420 C270 429.9 270 439.8 270 450 C260.1 450 250.2 450 240 450 C240 469.8 240 489.6 240 510 C230.1 510 220.2 510 210 510 C210 519.9 210 529.8 210 540 C190.2 540 170.4 540 150 540 C150 530.1 150 520.2 150 510 C140.1 510 130.2 510 120 510 C120 470.4 120 430.8 120 390 C139.8 390 159.6 390 180 390 C180 370.2 180 350.4 180 330 C199.8 330 219.6 330 240 330 C240 290.4 240 250.8 240 210 C230.1 210 220.2 210 210 210 C210 219.9 210 229.8 210 240 C200.1 240 190.2 240 180 240 C180 220.2 180 200.4 180 180 C170.1 180 160.2 180 150 180 C150 199.8 150 219.6 150 240 C140.1 240 130.2 240 120 240 C120 210.3 120 180.6 120 150 C100.2 150 80.4 150 60 150 C60 159.9 60 169.8 60 180 C50.1 180 40.2 180 30 180 C30 199.8 30 219.6 30 240 C10.2 240 -9.6 240 -30 240 C-30 170.7 -30 101.4 -30 30 C-20.1 30 -10.2 30 0 30 C0 20.1 0 10.2 0 0 Z " fill="#483D45" transform="translate(360,210)"/>
<path d="M0 0 C29.7 0 59.4 0 90 0 C90 9.9 90 19.8 90 30 C129.6 30 169.2 30 210 30 C210 39.9 210 49.8 210 60 C219.9 60 229.8 60 240 60 C240 69.9 240 79.8 240 90 C230.1 90 220.2 90 210 90 C210 119.7 210 149.4 210 180 C190.2 180 170.4 180 150 180 C150 199.8 150 219.6 150 240 C140.1 240 130.2 240 120 240 C120 210.3 120 180.6 120 150 C100.2 150 80.4 150 60 150 C60 159.9 60 169.8 60 180 C50.1 180 40.2 180 30 180 C30 199.8 30 219.6 30 240 C10.2 240 -9.6 240 -30 240 C-30 170.7 -30 101.4 -30 30 C-20.1 30 -10.2 30 0 30 C0 20.1 0 10.2 0 0 Z " fill="#5E4E51" transform="translate(360,210)"/>
<path d="M0 0 C29.7 0 59.4 0 90 0 C90 9.9 90 19.8 90 30 C99.9 30 109.8 30 120 30 C120 79.5 120 129 120 180 C110.1 180 100.2 180 90 180 C90 189.9 90 199.8 90 210 C40.5 210 -9 210 -60 210 C-60 150.6 -60 91.2 -60 30 C-40.2 30 -20.4 30 0 30 C0 20.1 0 10.2 0 0 Z " fill="#EBEBEB" transform="translate(330,600)"/>
<path d="M0 0 C19.8 0 39.6 0 60 0 C60 29.7 60 59.4 60 90 C69.9 90 79.8 90 90 90 C90 70.2 90 50.4 90 30 C99.9 30 109.8 30 120 30 C120 49.8 120 69.6 120 90 C129.9 90 139.8 90 150 90 C150 80.1 150 70.2 150 60 C159.9 60 169.8 60 180 60 C180 99.6 180 139.2 180 180 C160.2 180 140.4 180 120 180 C120 170.1 120 160.2 120 150 C129.9 150 139.8 150 150 150 C150 140.1 150 130.2 150 120 C100.5 120 51 120 0 120 C0 139.8 0 159.6 0 180 C-49.5 180 -99 180 -150 180 C-150 170.1 -150 160.2 -150 150 C-120.3 150 -90.6 150 -60 150 C-60 140.1 -60 130.2 -60 120 C-69.9 120 -79.8 120 -90 120 C-90 110.1 -90 100.2 -90 90 C-70.2 90 -50.4 90 -30 90 C-30 70.2 -30 50.4 -30 30 C-20.1 30 -10.2 30 0 30 C0 20.1 0 10.2 0 0 Z " fill="#F9F1EC" transform="translate(420,360)"/>
<path d="M0 0 C19.8 0 39.6 0 60 0 C60 148.5 60 297 60 450 C50.1 450 40.2 450 30 450 C30 440.1 30 430.2 30 420 C20.1 420 10.2 420 0 420 C0 281.4 0 142.8 0 0 Z " fill="#302931" transform="translate(630,210)"/>
<path d="M0 0 C19.8 0 39.6 0 60 0 C60 49.5 60 99 60 150 C50.1 150 40.2 150 30 150 C30 159.9 30 169.8 30 180 C10.2 180 -9.6 180 -30 180 C-30 170.1 -30 160.2 -30 150 C-39.9 150 -49.8 150 -60 150 C-60 110.4 -60 70.8 -60 30 C-40.2 30 -20.4 30 0 30 C0 20.1 0 10.2 0 0 Z " fill="#221C28" transform="translate(540,570)"/>
<path d="M0 0 C9.9 0 19.8 0 30 0 C30 9.9 30 19.8 30 30 C39.9 30 49.8 30 60 30 C60 39.9 60 49.8 60 60 C50.1 60 40.2 60 30 60 C30 89.7 30 119.4 30 150 C10.2 150 -9.6 150 -30 150 C-30 169.8 -30 189.6 -30 210 C-39.9 210 -49.8 210 -60 210 C-60 160.5 -60 111 -60 60 C-50.1 60 -40.2 60 -30 60 C-30 50.1 -30 40.2 -30 30 C-20.1 30 -10.2 30 0 30 C0 20.1 0 10.2 0 0 Z " fill="#5E4F51" transform="translate(540,240)"/>
<path d="M0 0 C59.4 0 118.8 0 180 0 C180 19.8 180 39.6 180 60 C170.1 60 160.2 60 150 60 C150 50.1 150 40.2 150 30 C120.3 30 90.6 30 60 30 C60 39.9 60 49.8 60 60 C40.2 60 20.4 60 0 60 C0 40.2 0 20.4 0 0 Z " fill="#B2A684" transform="translate(270,570)"/>
<path d="M0 0 C59.4 0 118.8 0 180 0 C180 9.9 180 19.8 180 30 C150.3 30 120.6 30 90 30 C90 39.9 90 49.8 90 60 C60.3 60 30.6 60 0 60 C0 40.2 0 20.4 0 0 Z " fill="#B2A684" transform="translate(180,480)"/>
<path d="M0 0 C19.8 0 39.6 0 60 0 C60 19.8 60 39.6 60 60 C10.5 60 -39 60 -90 60 C-90 50.1 -90 40.2 -90 30 C-60.3 30 -30.6 30 0 30 C0 20.1 0 10.2 0 0 Z " fill="#EBEBEB" transform="translate(360,480)"/>
<path d="M0 0 C19.8 0 39.6 0 60 0 C60 19.8 60 39.6 60 60 C40.2 60 20.4 60 0 60 C0 69.9 0 79.8 0 90 C-9.9 90 -19.8 90 -30 90 C-30 70.2 -30 50.4 -30 30 C-20.1 30 -10.2 30 0 30 C0 20.1 0 10.2 0 0 Z " fill="#F9F2ED" transform="translate(420,360)"/>
<path d="M0 0 C9.9 0 19.8 0 30 0 C30 39.6 30 79.2 30 120 C20.1 120 10.2 120 0 120 C0 129.9 0 139.8 0 150 C-9.9 150 -19.8 150 -30 150 C-30 130.2 -30 110.4 -30 90 C-20.1 90 -10.2 90 0 90 C0 60.3 0 30.6 0 0 Z " fill="#56474C" transform="translate(570,300)"/>
<path d="M0 0 C9.9 0 19.8 0 30 0 C30 9.9 30 19.8 30 30 C39.9 30 49.8 30 60 30 C60 39.9 60 49.8 60 60 C50.1 60 40.2 60 30 60 C30 69.9 30 79.8 30 90 C20.1 90 10.2 90 0 90 C0 80.1 0 70.2 0 60 C-9.9 60 -19.8 60 -30 60 C-30 50.1 -30 40.2 -30 30 C-20.1 30 -10.2 30 0 30 C0 20.1 0 10.2 0 0 Z " fill="#E9C12B" transform="translate(330,660)"/>
<path d="M0 0 C19.8 0 39.6 0 60 0 C60 29.7 60 59.4 60 90 C50.1 90 40.2 90 30 90 C30 80.1 30 70.2 30 60 C20.1 60 10.2 60 0 60 C0 40.2 0 20.4 0 0 Z " fill="#302931" transform="translate(480,600)"/>
<path d="M0 0 C29.7 0 59.4 0 90 0 C90 9.9 90 19.8 90 30 C99.9 30 109.8 30 120 30 C120 39.9 120 49.8 120 60 C100.2 60 80.4 60 60 60 C60 50.1 60 40.2 60 30 C40.2 30 20.4 30 0 30 C0 20.1 0 10.2 0 0 Z " fill="#DAD2BC" transform="translate(330,600)"/>
<path d="M0 0 C29.7 0 59.4 0 90 0 C90 9.9 90 19.8 90 30 C80.1 30 70.2 30 60 30 C60 39.9 60 49.8 60 60 C40.2 60 20.4 60 0 60 C0 40.2 0 20.4 0 0 Z " fill="#653E2C" transform="translate(480,480)"/>
<path d="M0 0 C9.9 0 19.8 0 30 0 C30 39.6 30 79.2 30 120 C10.2 120 -9.6 120 -30 120 C-30 110.1 -30 100.2 -30 90 C-20.1 90 -10.2 90 0 90 C0 60.3 0 30.6 0 0 Z " fill="#ECEBE7" transform="translate(570,420)"/>
<path d="M0 0 C9.9 0 19.8 0 30 0 C30 9.9 30 19.8 30 30 C39.9 30 49.8 30 60 30 C60 39.9 60 49.8 60 60 C50.1 60 40.2 60 30 60 C30 69.9 30 79.8 30 90 C20.1 90 10.2 90 0 90 C0 80.1 0 70.2 0 60 C-9.9 60 -19.8 60 -30 60 C-30 50.1 -30 40.2 -30 30 C-20.1 30 -10.2 30 0 30 C0 20.1 0 10.2 0 0 Z " fill="#E9C12B" transform="translate(540,240)"/>
<path d="M0 0 C19.8 0 39.6 0 60 0 C60 19.8 60 39.6 60 60 C40.2 60 20.4 60 0 60 C0 40.2 0 20.4 0 0 Z " fill="#DAD2BC" transform="translate(270,630)"/>
<path d="M0 0 C19.8 0 39.6 0 60 0 C60 19.8 60 39.6 60 60 C40.2 60 20.4 60 0 60 C0 40.2 0 20.4 0 0 Z " fill="#ECEBE7" transform="translate(480,540)"/>
<path d="M0 0 C19.8 0 39.6 0 60 0 C60 19.8 60 39.6 60 60 C40.2 60 20.4 60 0 60 C0 40.2 0 20.4 0 0 Z " fill="#ECEBE7" transform="translate(180,540)"/>
<path d="M0 0 C19.8 0 39.6 0 60 0 C60 19.8 60 39.6 60 60 C40.2 60 20.4 60 0 60 C0 40.2 0 20.4 0 0 Z " fill="#968B6C" transform="translate(180,480)"/>
<path d="M0 0 C19.8 0 39.6 0 60 0 C60 29.7 60 59.4 60 90 C50.1 90 40.2 90 30 90 C30 70.2 30 50.4 30 30 C20.1 30 10.2 30 0 30 C0 20.1 0 10.2 0 0 Z " fill="#695753" transform="translate(360,210)"/>
<path d="M0 0 C19.8 0 39.6 0 60 0 C60 9.9 60 19.8 60 30 C50.1 30 40.2 30 30 30 C30 49.8 30 69.6 30 90 C20.1 90 10.2 90 0 90 C0 60.3 0 30.6 0 0 Z " fill="#56474C" transform="translate(330,240)"/>
<path d="M0 0 C19.8 0 39.6 0 60 0 C60 19.8 60 39.6 60 60 C50.1 60 40.2 60 30 60 C30 50.1 30 40.2 30 30 C20.1 30 10.2 30 0 30 C0 20.1 0 10.2 0 0 Z " fill="#DAD2BC" transform="translate(360,480)"/>
<path d="M0 0 C19.8 0 39.6 0 60 0 C60 9.9 60 19.8 60 30 C40.2 30 20.4 30 0 30 C0 20.1 0 10.2 0 0 Z " fill="#DAD2BC" transform="translate(270,780)"/>
<path d="M0 0 C19.8 0 39.6 0 60 0 C60 9.9 60 19.8 60 30 C40.2 30 20.4 30 0 30 C0 20.1 0 10.2 0 0 Z " fill="#808080" transform="translate(510,720)"/>
<path d="M0 0 C9.9 0 19.8 0 30 0 C30 19.8 30 39.6 30 60 C20.1 60 10.2 60 0 60 C0 40.2 0 20.4 0 0 Z " fill="#302931" transform="translate(570,660)"/>
<path d="M0 0 C19.8 0 39.6 0 60 0 C60 9.9 60 19.8 60 30 C40.2 30 20.4 30 0 30 C0 20.1 0 10.2 0 0 Z " fill="#302931" transform="translate(540,570)"/>
<path d="M0 0 C19.8 0 39.6 0 60 0 C60 9.9 60 19.8 60 30 C40.2 30 20.4 30 0 30 C0 20.1 0 10.2 0 0 Z " fill="#36363E" transform="translate(540,540)"/>
<path d="M0 0 C19.8 0 39.6 0 60 0 C60 9.9 60 19.8 60 30 C40.2 30 20.4 30 0 30 C0 20.1 0 10.2 0 0 Z " fill="#CFB395" transform="translate(540,510)"/>
<path d="M0 0 C9.9 0 19.8 0 30 0 C30 19.8 30 39.6 30 60 C20.1 60 10.2 60 0 60 C0 40.2 0 20.4 0 0 Z " fill="#B2A684" transform="translate(420,480)"/>
<path d="M0 0 C9.9 0 19.8 0 30 0 C30 19.8 30 39.6 30 60 C20.1 60 10.2 60 0 60 C0 40.2 0 20.4 0 0 Z " fill="#653E2C" transform="translate(180,480)"/>
<path d="M0 0 C9.9 0 19.8 0 30 0 C30 19.8 30 39.6 30 60 C20.1 60 10.2 60 0 60 C0 40.2 0 20.4 0 0 Z " fill="#C19C72" transform="translate(480,390)"/>
<path d="M0 0 C19.8 0 39.6 0 60 0 C60 9.9 60 19.8 60 30 C40.2 30 20.4 30 0 30 C0 20.1 0 10.2 0 0 Z " fill="#ECEBE7" transform="translate(420,420)"/>
<path d="M0 0 C9.9 0 19.8 0 30 0 C30 19.8 30 39.6 30 60 C20.1 60 10.2 60 0 60 C0 40.2 0 20.4 0 0 Z " fill="#C19C72" transform="translate(360,390)"/>
<path d="M0 0 C9.9 0 19.8 0 30 0 C30 19.8 30 39.6 30 60 C20.1 60 10.2 60 0 60 C0 40.2 0 20.4 0 0 Z " fill="#483D45" transform="translate(330,390)"/>
<path d="M0 0 C19.8 0 39.6 0 60 0 C60 9.9 60 19.8 60 30 C40.2 30 20.4 30 0 30 C0 20.1 0 10.2 0 0 Z " fill="#483D45" transform="translate(480,360)"/>
<path d="M0 0 C19.8 0 39.6 0 60 0 C60 9.9 60 19.8 60 30 C40.2 30 20.4 30 0 30 C0 20.1 0 10.2 0 0 Z " fill="#483D45" transform="translate(360,360)"/>
<path d="M0 0 C19.8 0 39.6 0 60 0 C60 9.9 60 19.8 60 30 C40.2 30 20.4 30 0 30 C0 20.1 0 10.2 0 0 Z " fill="#56474C" transform="translate(420,330)"/>
<path d="M0 0 C19.8 0 39.6 0 60 0 C60 9.9 60 19.8 60 30 C40.2 30 20.4 30 0 30 C0 20.1 0 10.2 0 0 Z " fill="#7D5E49" transform="translate(360,210)"/>
<path d="M0 0 C9.9 0 19.8 0 30 0 C30 9.9 30 19.8 30 30 C20.1 30 10.2 30 0 30 C0 20.1 0 10.2 0 0 Z " fill="#B2A684" transform="translate(420,780)"/>
<path d="M0 0 C9.9 0 19.8 0 30 0 C30 9.9 30 19.8 30 30 C20.1 30 10.2 30 0 30 C0 20.1 0 10.2 0 0 Z " fill="#DAD2BC" transform="translate(390,780)"/>
<path d="M0 0 C9.9 0 19.8 0 30 0 C30 9.9 30 19.8 30 30 C20.1 30 10.2 30 0 30 C0 20.1 0 10.2 0 0 Z " fill="#DAD2BC" transform="translate(420,750)"/>
<path d="M0 0 C9.9 0 19.8 0 30 0 C30 9.9 30 19.8 30 30 C20.1 30 10.2 30 0 30 C0 20.1 0 10.2 0 0 Z " fill="#8F8F8F" transform="translate(510,720)"/>
<path d="M0 0 C9.9 0 19.8 0 30 0 C30 9.9 30 19.8 30 30 C20.1 30 10.2 30 0 30 C0 20.1 0 10.2 0 0 Z " fill="#302931" transform="translate(510,690)"/>
<path d="M0 0 C9.9 0 19.8 0 30 0 C30 9.9 30 19.8 30 30 C20.1 30 10.2 30 0 30 C0 20.1 0 10.2 0 0 Z " fill="#36363E" transform="translate(570,660)"/>
<path d="M0 0 C9.9 0 19.8 0 30 0 C30 9.9 30 19.8 30 30 C20.1 30 10.2 30 0 30 C0 20.1 0 10.2 0 0 Z " fill="#E9C12B" transform="translate(510,660)"/>
<path d="M0 0 C9.9 0 19.8 0 30 0 C30 9.9 30 19.8 30 30 C20.1 30 10.2 30 0 30 C0 20.1 0 10.2 0 0 Z " fill="#EBEBEB" transform="translate(300,660)"/>
<path d="M0 0 C9.9 0 19.8 0 30 0 C30 9.9 30 19.8 30 30 C20.1 30 10.2 30 0 30 C0 20.1 0 10.2 0 0 Z " fill="#36363E" transform="translate(480,630)"/>
<path d="M0 0 C9.9 0 19.8 0 30 0 C30 9.9 30 19.8 30 30 C20.1 30 10.2 30 0 30 C0 20.1 0 10.2 0 0 Z " fill="#F9F0EB" transform="translate(480,540)"/>
<path d="M0 0 C9.9 0 19.8 0 30 0 C30 9.9 30 19.8 30 30 C20.1 30 10.2 30 0 30 C0 20.1 0 10.2 0 0 Z " fill="#F9F0EB" transform="translate(180,540)"/>
<path d="M0 0 C9.9 0 19.8 0 30 0 C30 9.9 30 19.8 30 30 C20.1 30 10.2 30 0 30 C0 20.1 0 10.2 0 0 Z " fill="#E9C12B" transform="translate(540,510)"/>
<path d="M0 0 C9.9 0 19.8 0 30 0 C30 9.9 30 19.8 30 30 C20.1 30 10.2 30 0 30 C0 20.1 0 10.2 0 0 Z " fill="#DAD2BC" transform="translate(270,510)"/>
<path d="M0 0 C9.9 0 19.8 0 30 0 C30 9.9 30 19.8 30 30 C20.1 30 10.2 30 0 30 C0 20.1 0 10.2 0 0 Z " fill="#F7E7CF" transform="translate(570,480)"/>
<path d="M0 0 C9.9 0 19.8 0 30 0 C30 9.9 30 19.8 30 30 C20.1 30 10.2 30 0 30 C0 20.1 0 10.2 0 0 Z " fill="#36363E" transform="translate(540,480)"/>
<path d="M0 0 C9.9 0 19.8 0 30 0 C30 9.9 30 19.8 30 30 C20.1 30 10.2 30 0 30 C0 20.1 0 10.2 0 0 Z " fill="#483D45" transform="translate(540,420)"/>
<path d="M0 0 C9.9 0 19.8 0 30 0 C30 9.9 30 19.8 30 30 C20.1 30 10.2 30 0 30 C0 20.1 0 10.2 0 0 Z " fill="#9B775D" transform="translate(480,390)"/>
<path d="M0 0 C9.9 0 19.8 0 30 0 C30 9.9 30 19.8 30 30 C20.1 30 10.2 30 0 30 C0 20.1 0 10.2 0 0 Z " fill="#9B775D" transform="translate(360,390)"/>
<path d="M0 0 C9.9 0 19.8 0 30 0 C30 9.9 30 19.8 30 30 C20.1 30 10.2 30 0 30 C0 20.1 0 10.2 0 0 Z " fill="#56474C" transform="translate(330,390)"/>
<path d="M0 0 C9.9 0 19.8 0 30 0 C30 9.9 30 19.8 30 30 C20.1 30 10.2 30 0 30 C0 20.1 0 10.2 0 0 Z " fill="#F9F0EB" transform="translate(480,330)"/>
<path d="M0 0 C9.9 0 19.8 0 30 0 C30 9.9 30 19.8 30 30 C20.1 30 10.2 30 0 30 C0 20.1 0 10.2 0 0 Z " fill="#F9F0EB" transform="translate(390,330)"/>
<path d="M0 0 C9.9 0 19.8 0 30 0 C30 9.9 30 19.8 30 30 C20.1 30 10.2 30 0 30 C0 20.1 0 10.2 0 0 Z " fill="#695753" transform="translate(480,300)"/>
<path d="M0 0 C9.9 0 19.8 0 30 0 C30 9.9 30 19.8 30 30 C20.1 30 10.2 30 0 30 C0 20.1 0 10.2 0 0 Z " fill="#56474C" transform="translate(570,240)"/>
<path d="M0 0 C9.9 0 19.8 0 30 0 C30 9.9 30 19.8 30 30 C20.1 30 10.2 30 0 30 C0 20.1 0 10.2 0 0 Z " fill="#423434" transform="translate(420,210)"/>
<path d="M0 0 C9.9 0 19.8 0 30 0 C30 9.9 30 19.8 30 30 C20.1 30 10.2 30 0 30 C0 20.1 0 10.2 0 0 Z " fill="#AE7F61" transform="translate(360,210)"/>
</svg>
